<mxfile host="app.diagrams.net" modified="2023-09-05T18:42:30.170Z" agent="Mozilla/5.0 (X11; Linux x86_64) AppleWebKit/537.36 (KHTML, like Gecko) Chrome/116.0.0.0 Safari/537.36" etag="4X9gv6x2tdiOaYKd5u3R" version="21.7.2" type="device">
  <diagram name="PÃ¡gina-1" id="yUaY86v8C4R5WEZKxdP5">
    <mxGraphModel dx="1165" dy="709" grid="1" gridSize="10" guides="1" tooltips="1" connect="1" arrows="1" fold="1" page="1" pageScale="1" pageWidth="827" pageHeight="1169" math="0" shadow="0">
      <root>
        <mxCell id="0" />
        <mxCell id="1" parent="0" />
        <mxCell id="MGP-eqwxhRiWV8Qwwf_T-1" value="" style="ellipse;whiteSpace=wrap;html=1;aspect=fixed;dashed=1;fillColor=#000000;opacity=15;" vertex="1" parent="1">
          <mxGeometry width="820" height="820" as="geometry" />
        </mxCell>
        <mxCell id="MGP-eqwxhRiWV8Qwwf_T-2" value="AUTORG" style="text;html=1;strokeColor=none;fillColor=none;align=center;verticalAlign=middle;whiteSpace=wrap;rounded=0;fontSize=30;" vertex="1" parent="1">
          <mxGeometry x="80" y="160" width="130" height="90" as="geometry" />
        </mxCell>
        <mxCell id="MGP-eqwxhRiWV8Qwwf_T-3" value="" style="ellipse;whiteSpace=wrap;html=1;aspect=fixed;dashed=1;fillColor=#000000;opacity=15;" vertex="1" parent="1">
          <mxGeometry x="300" width="260" height="260" as="geometry" />
        </mxCell>
        <mxCell id="MGP-eqwxhRiWV8Qwwf_T-4" value="Gestion Inputs" style="text;html=1;strokeColor=none;fillColor=none;align=center;verticalAlign=middle;whiteSpace=wrap;rounded=0;" vertex="1" parent="1">
          <mxGeometry x="460" y="40" width="60" height="30" as="geometry" />
        </mxCell>
        <mxCell id="MGP-eqwxhRiWV8Qwwf_T-6" value="" style="ellipse;whiteSpace=wrap;html=1;aspect=fixed;dashed=1;fillColor=#000000;opacity=15;" vertex="1" parent="1">
          <mxGeometry x="110" y="260" width="550" height="550" as="geometry" />
        </mxCell>
        <mxCell id="MGP-eqwxhRiWV8Qwwf_T-7" value="Gestion Inteligente de Recursos" style="text;html=1;strokeColor=none;fillColor=none;align=center;verticalAlign=middle;whiteSpace=wrap;rounded=0;" vertex="1" parent="1">
          <mxGeometry x="350" y="290" width="60" height="30" as="geometry" />
        </mxCell>
        <mxCell id="MGP-eqwxhRiWV8Qwwf_T-11" value="" style="ellipse;whiteSpace=wrap;html=1;aspect=fixed;dashed=1;fillColor=#000000;opacity=15;" vertex="1" parent="1">
          <mxGeometry x="120" y="380" width="400" height="400" as="geometry" />
        </mxCell>
        <mxCell id="MGP-eqwxhRiWV8Qwwf_T-12" value="Gestion de la actividad del individuo" style="text;html=1;strokeColor=none;fillColor=none;align=center;verticalAlign=middle;whiteSpace=wrap;rounded=0;" vertex="1" parent="1">
          <mxGeometry x="220" y="440" width="60" height="30" as="geometry" />
        </mxCell>
        <mxCell id="MGP-eqwxhRiWV8Qwwf_T-18" value="" style="group" vertex="1" connectable="0" parent="1">
          <mxGeometry x="150" y="540" width="120" height="120" as="geometry" />
        </mxCell>
        <mxCell id="MGP-eqwxhRiWV8Qwwf_T-15" value="" style="ellipse;whiteSpace=wrap;html=1;aspect=fixed;dashed=1;fillColor=#000000;opacity=15;" vertex="1" parent="MGP-eqwxhRiWV8Qwwf_T-18">
          <mxGeometry width="120" height="120" as="geometry" />
        </mxCell>
        <mxCell id="MGP-eqwxhRiWV8Qwwf_T-16" value="Gestion de tareas" style="text;html=1;strokeColor=none;fillColor=none;align=center;verticalAlign=middle;whiteSpace=wrap;rounded=0;" vertex="1" parent="MGP-eqwxhRiWV8Qwwf_T-18">
          <mxGeometry x="36" y="48" width="48" height="24" as="geometry" />
        </mxCell>
        <mxCell id="MGP-eqwxhRiWV8Qwwf_T-19" value="" style="group" vertex="1" connectable="0" parent="1">
          <mxGeometry x="354" y="540" width="120" height="120" as="geometry" />
        </mxCell>
        <mxCell id="MGP-eqwxhRiWV8Qwwf_T-20" value="" style="ellipse;whiteSpace=wrap;html=1;aspect=fixed;dashed=1;fillColor=#000000;opacity=15;" vertex="1" parent="MGP-eqwxhRiWV8Qwwf_T-19">
          <mxGeometry width="120" height="120" as="geometry" />
        </mxCell>
        <mxCell id="MGP-eqwxhRiWV8Qwwf_T-21" value="Gestion de proyectos" style="text;html=1;strokeColor=none;fillColor=none;align=center;verticalAlign=middle;whiteSpace=wrap;rounded=0;" vertex="1" parent="MGP-eqwxhRiWV8Qwwf_T-19">
          <mxGeometry x="36" y="48" width="48" height="24" as="geometry" />
        </mxCell>
        <mxCell id="MGP-eqwxhRiWV8Qwwf_T-24" value="" style="group" vertex="1" connectable="0" parent="1">
          <mxGeometry x="470" y="330" width="120" height="120" as="geometry" />
        </mxCell>
        <mxCell id="MGP-eqwxhRiWV8Qwwf_T-25" value="" style="ellipse;whiteSpace=wrap;html=1;aspect=fixed;dashed=1;fillColor=#000000;opacity=15;" vertex="1" parent="MGP-eqwxhRiWV8Qwwf_T-24">
          <mxGeometry width="120" height="120" as="geometry" />
        </mxCell>
        <mxCell id="MGP-eqwxhRiWV8Qwwf_T-26" value="Gestion de personas" style="text;html=1;strokeColor=none;fillColor=none;align=center;verticalAlign=middle;whiteSpace=wrap;rounded=0;" vertex="1" parent="MGP-eqwxhRiWV8Qwwf_T-24">
          <mxGeometry x="36" y="48" width="48" height="24" as="geometry" />
        </mxCell>
        <mxCell id="MGP-eqwxhRiWV8Qwwf_T-30" value="" style="group" vertex="1" connectable="0" parent="1">
          <mxGeometry x="540" y="465" width="120" height="120" as="geometry" />
        </mxCell>
        <mxCell id="MGP-eqwxhRiWV8Qwwf_T-31" value="" style="ellipse;whiteSpace=wrap;html=1;aspect=fixed;dashed=1;fillColor=#000000;opacity=15;" vertex="1" parent="MGP-eqwxhRiWV8Qwwf_T-30">
          <mxGeometry width="120" height="120" as="geometry" />
        </mxCell>
        <mxCell id="MGP-eqwxhRiWV8Qwwf_T-32" value="Gestion financiera" style="text;html=1;strokeColor=none;fillColor=none;align=center;verticalAlign=middle;whiteSpace=wrap;rounded=0;" vertex="1" parent="MGP-eqwxhRiWV8Qwwf_T-30">
          <mxGeometry x="36" y="48" width="48" height="24" as="geometry" />
        </mxCell>
        <mxCell id="MGP-eqwxhRiWV8Qwwf_T-41" value="" style="group" vertex="1" connectable="0" parent="1">
          <mxGeometry x="370" width="80" height="90" as="geometry" />
        </mxCell>
        <mxCell id="MGP-eqwxhRiWV8Qwwf_T-42" value="" style="ellipse;whiteSpace=wrap;html=1;aspect=fixed;dashed=1;fillColor=#000000;opacity=15;" vertex="1" parent="MGP-eqwxhRiWV8Qwwf_T-41">
          <mxGeometry width="80" height="80" as="geometry" />
        </mxCell>
        <mxCell id="MGP-eqwxhRiWV8Qwwf_T-43" value="Volcamiento de inputs" style="text;html=1;strokeColor=none;fillColor=none;align=center;verticalAlign=middle;whiteSpace=wrap;rounded=0;" vertex="1" parent="MGP-eqwxhRiWV8Qwwf_T-41">
          <mxGeometry x="24" y="36" width="32" height="18" as="geometry" />
        </mxCell>
        <mxCell id="MGP-eqwxhRiWV8Qwwf_T-54" value="" style="ellipse;whiteSpace=wrap;html=1;aspect=fixed;dashed=1;fillColor=#000000;opacity=15;" vertex="1" parent="1">
          <mxGeometry x="339" y="78" width="182" height="182" as="geometry" />
        </mxCell>
        <mxCell id="MGP-eqwxhRiWV8Qwwf_T-51" value="" style="group" vertex="1" connectable="0" parent="1">
          <mxGeometry x="345" y="150" width="80" height="90" as="geometry" />
        </mxCell>
        <mxCell id="MGP-eqwxhRiWV8Qwwf_T-52" value="" style="ellipse;whiteSpace=wrap;html=1;aspect=fixed;dashed=1;fillColor=#000000;opacity=15;" vertex="1" parent="MGP-eqwxhRiWV8Qwwf_T-51">
          <mxGeometry width="80" height="80" as="geometry" />
        </mxCell>
        <mxCell id="MGP-eqwxhRiWV8Qwwf_T-53" value="Organizacion de inputs" style="text;html=1;strokeColor=none;fillColor=none;align=center;verticalAlign=middle;whiteSpace=wrap;rounded=0;" vertex="1" parent="MGP-eqwxhRiWV8Qwwf_T-51">
          <mxGeometry x="24" y="36" width="32" height="18" as="geometry" />
        </mxCell>
        <mxCell id="MGP-eqwxhRiWV8Qwwf_T-56" value="" style="group" vertex="1" connectable="0" parent="1">
          <mxGeometry x="430" y="140" width="80" height="80" as="geometry" />
        </mxCell>
        <mxCell id="MGP-eqwxhRiWV8Qwwf_T-48" value="" style="ellipse;whiteSpace=wrap;html=1;aspect=fixed;dashed=1;fillColor=#000000;opacity=15;" vertex="1" parent="MGP-eqwxhRiWV8Qwwf_T-56">
          <mxGeometry width="80" height="80" as="geometry" />
        </mxCell>
        <mxCell id="MGP-eqwxhRiWV8Qwwf_T-49" value="Clarificacion de inputs" style="text;html=1;strokeColor=none;fillColor=none;align=center;verticalAlign=middle;whiteSpace=wrap;rounded=0;" vertex="1" parent="MGP-eqwxhRiWV8Qwwf_T-56">
          <mxGeometry x="24" y="36" width="32" height="18" as="geometry" />
        </mxCell>
        <mxCell id="MGP-eqwxhRiWV8Qwwf_T-59" value="Procesado" style="text;html=1;strokeColor=none;fillColor=none;align=center;verticalAlign=middle;whiteSpace=wrap;rounded=0;" vertex="1" parent="1">
          <mxGeometry x="390" y="100" width="60" height="30" as="geometry" />
        </mxCell>
        <mxCell id="MGP-eqwxhRiWV8Qwwf_T-78" value="" style="ellipse;whiteSpace=wrap;html=1;aspect=fixed;dashed=1;fillColor=#000000;opacity=15;" vertex="1" parent="1">
          <mxGeometry x="910" y="20" width="700" height="700" as="geometry" />
        </mxCell>
        <mxCell id="MGP-eqwxhRiWV8Qwwf_T-79" value="" style="ellipse;whiteSpace=wrap;html=1;aspect=fixed;dashed=1;fillColor=#000000;opacity=15;" vertex="1" parent="1">
          <mxGeometry x="1010" y="90" width="150" height="150" as="geometry" />
        </mxCell>
        <mxCell id="MGP-eqwxhRiWV8Qwwf_T-81" value="Clarificacion" style="text;html=1;strokeColor=none;fillColor=none;align=center;verticalAlign=middle;whiteSpace=wrap;rounded=0;" vertex="1" parent="1">
          <mxGeometry x="1055" y="102" width="60" height="30" as="geometry" />
        </mxCell>
        <mxCell id="MGP-eqwxhRiWV8Qwwf_T-80" value="Proceso" style="text;html=1;strokeColor=none;fillColor=none;align=center;verticalAlign=middle;whiteSpace=wrap;rounded=0;" vertex="1" parent="1">
          <mxGeometry x="1211" y="30" width="60" height="30" as="geometry" />
        </mxCell>
        <mxCell id="MGP-eqwxhRiWV8Qwwf_T-83" value="" style="ellipse;whiteSpace=wrap;html=1;aspect=fixed;dashed=1;fillColor=#000000;opacity=15;" vertex="1" parent="1">
          <mxGeometry x="1010" y="134" width="70" height="70" as="geometry" />
        </mxCell>
        <mxCell id="MGP-eqwxhRiWV8Qwwf_T-84" value="Visualizador de recursos" style="text;html=1;strokeColor=none;fillColor=none;align=center;verticalAlign=middle;whiteSpace=wrap;rounded=0;" vertex="1" parent="1">
          <mxGeometry x="1015" y="154" width="60" height="30" as="geometry" />
        </mxCell>
        <mxCell id="MGP-eqwxhRiWV8Qwwf_T-86" value="" style="ellipse;whiteSpace=wrap;html=1;aspect=fixed;dashed=1;fillColor=#000000;opacity=15;" vertex="1" parent="1">
          <mxGeometry x="1167.5" y="50" width="340" height="340" as="geometry" />
        </mxCell>
        <mxCell id="MGP-eqwxhRiWV8Qwwf_T-87" value="Organizacion" style="text;html=1;strokeColor=none;fillColor=none;align=center;verticalAlign=middle;whiteSpace=wrap;rounded=0;" vertex="1" parent="1">
          <mxGeometry x="1307.5" y="50" width="60" height="30" as="geometry" />
        </mxCell>
        <mxCell id="MGP-eqwxhRiWV8Qwwf_T-88" value="" style="ellipse;whiteSpace=wrap;html=1;aspect=fixed;dashed=1;fillColor=#000000;opacity=15;" vertex="1" parent="1">
          <mxGeometry x="1178" y="100" width="260" height="260" as="geometry" />
        </mxCell>
        <mxCell id="MGP-eqwxhRiWV8Qwwf_T-89" value="Listas" style="text;html=1;strokeColor=none;fillColor=none;align=center;verticalAlign=middle;whiteSpace=wrap;rounded=0;" vertex="1" parent="1">
          <mxGeometry x="1262" y="110" width="60" height="30" as="geometry" />
        </mxCell>
        <mxCell id="MGP-eqwxhRiWV8Qwwf_T-90" value="" style="ellipse;whiteSpace=wrap;html=1;aspect=fixed;dashed=1;fillColor=#000000;opacity=15;" vertex="1" parent="1">
          <mxGeometry x="1220" y="130" width="72" height="72" as="geometry" />
        </mxCell>
        <mxCell id="MGP-eqwxhRiWV8Qwwf_T-91" value="Agenda" style="text;html=1;strokeColor=none;fillColor=none;align=center;verticalAlign=middle;whiteSpace=wrap;rounded=0;" vertex="1" parent="1">
          <mxGeometry x="1220" y="150" width="60" height="30" as="geometry" />
        </mxCell>
        <mxCell id="MGP-eqwxhRiWV8Qwwf_T-96" value="" style="ellipse;whiteSpace=wrap;html=1;aspect=fixed;dashed=1;fillColor=#000000;opacity=15;" vertex="1" parent="1">
          <mxGeometry x="1438" y="167" width="73" height="73" as="geometry" />
        </mxCell>
        <mxCell id="MGP-eqwxhRiWV8Qwwf_T-97" value="Calendario" style="text;html=1;strokeColor=none;fillColor=none;align=center;verticalAlign=middle;whiteSpace=wrap;rounded=0;" vertex="1" parent="1">
          <mxGeometry x="1451" y="192" width="60" height="30" as="geometry" />
        </mxCell>
        <mxCell id="MGP-eqwxhRiWV8Qwwf_T-99" value="Algun dia tal vez" style="text;html=1;strokeColor=none;fillColor=none;align=center;verticalAlign=middle;whiteSpace=wrap;rounded=0;" vertex="1" parent="1">
          <mxGeometry x="1292" y="202.5" width="60" height="30" as="geometry" />
        </mxCell>
        <mxCell id="MGP-eqwxhRiWV8Qwwf_T-100" value="" style="ellipse;whiteSpace=wrap;html=1;aspect=fixed;dashed=1;fillColor=#000000;opacity=15;" vertex="1" parent="1">
          <mxGeometry x="1301.5" y="200.5" width="32" height="32" as="geometry" />
        </mxCell>
        <mxCell id="MGP-eqwxhRiWV8Qwwf_T-101" value="" style="ellipse;whiteSpace=wrap;html=1;aspect=fixed;dashed=1;fillColor=#000000;opacity=15;" vertex="1" parent="1">
          <mxGeometry x="1310" y="241" width="72" height="72" as="geometry" />
        </mxCell>
        <mxCell id="MGP-eqwxhRiWV8Qwwf_T-102" value="Referencia" style="text;html=1;strokeColor=none;fillColor=none;align=center;verticalAlign=middle;whiteSpace=wrap;rounded=0;" vertex="1" parent="1">
          <mxGeometry x="1322" y="262" width="60" height="30" as="geometry" />
        </mxCell>
        <mxCell id="MGP-eqwxhRiWV8Qwwf_T-104" value="Planificador" style="text;html=1;strokeColor=none;fillColor=none;align=center;verticalAlign=middle;whiteSpace=wrap;rounded=0;" vertex="1" parent="1">
          <mxGeometry x="1083" y="140" width="70" height="68" as="geometry" />
        </mxCell>
        <mxCell id="MGP-eqwxhRiWV8Qwwf_T-105" value="" style="ellipse;whiteSpace=wrap;html=1;aspect=fixed;dashed=1;fillColor=#000000;opacity=15;" vertex="1" parent="1">
          <mxGeometry x="1083" y="140" width="70" height="70" as="geometry" />
        </mxCell>
        <mxCell id="MGP-eqwxhRiWV8Qwwf_T-106" value="Proyectos" style="text;html=1;strokeColor=none;fillColor=none;align=center;verticalAlign=middle;whiteSpace=wrap;rounded=0;" vertex="1" parent="1">
          <mxGeometry x="1367.5" y="190" width="60" height="30" as="geometry" />
        </mxCell>
        <mxCell id="MGP-eqwxhRiWV8Qwwf_T-107" value="" style="ellipse;whiteSpace=wrap;html=1;aspect=fixed;dashed=1;fillColor=#000000;opacity=15;" vertex="1" parent="1">
          <mxGeometry x="1361.5" y="175" width="60" height="60" as="geometry" />
        </mxCell>
        <mxCell id="MGP-eqwxhRiWV8Qwwf_T-110" value="" style="group" vertex="1" connectable="0" parent="1">
          <mxGeometry x="1214" y="180" width="72" height="72" as="geometry" />
        </mxCell>
        <mxCell id="MGP-eqwxhRiWV8Qwwf_T-108" value="Acciones" style="text;html=1;strokeColor=none;fillColor=none;align=center;verticalAlign=middle;whiteSpace=wrap;rounded=0;" vertex="1" parent="MGP-eqwxhRiWV8Qwwf_T-110">
          <mxGeometry x="6" y="30" width="60" height="30" as="geometry" />
        </mxCell>
        <mxCell id="MGP-eqwxhRiWV8Qwwf_T-109" value="" style="ellipse;whiteSpace=wrap;html=1;aspect=fixed;dashed=1;fillColor=#000000;opacity=15;" vertex="1" parent="1">
          <mxGeometry x="1193" y="208" width="126" height="126" as="geometry" />
        </mxCell>
        <mxCell id="MGP-eqwxhRiWV8Qwwf_T-112" value="Siguientes" style="ellipse;whiteSpace=wrap;html=1;aspect=fixed;dashed=1;fillColor=#000000;opacity=15;" vertex="1" parent="1">
          <mxGeometry x="1211" y="232.5" width="37.5" height="37.5" as="geometry" />
        </mxCell>
        <mxCell id="MGP-eqwxhRiWV8Qwwf_T-113" value="Bloqueadas" style="ellipse;whiteSpace=wrap;html=1;aspect=fixed;dashed=1;fillColor=#000000;opacity=15;" vertex="1" parent="1">
          <mxGeometry x="1224.5" y="286.25" width="37.5" height="37.5" as="geometry" />
        </mxCell>
        <mxCell id="MGP-eqwxhRiWV8Qwwf_T-116" value="Delegadas" style="ellipse;whiteSpace=wrap;html=1;aspect=fixed;dashed=1;fillColor=#000000;opacity=15;" vertex="1" parent="1">
          <mxGeometry x="1262" y="250" width="37.5" height="37.5" as="geometry" />
        </mxCell>
        <mxCell id="MGP-eqwxhRiWV8Qwwf_T-119" value="Pregunta" style="ellipse;whiteSpace=wrap;html=1;aspect=fixed;dashed=1;fillColor=#000000;opacity=15;" vertex="1" parent="1">
          <mxGeometry x="1020" y="290" width="70" height="70" as="geometry" />
        </mxCell>
      </root>
    </mxGraphModel>
  </diagram>
</mxfile>
